<svg xmlns="http://www.w3.org/2000/svg" viewBox="0 -64 288 288">
  <style>
    path {
      fill: #09090b;
    }
    @media (prefers-color-scheme: dark) {
      path {
        fill: #fafafa;
      }
    }
  </style>
  <path d="M0 0 h128 v32 h-128 Z M0 32 h32 v32 h-32 Z M0 64 h128 v32 h-128 Z M96 96 h32 v32 h-32 Z M0 128 h128 v32 h-128 Z M160 0 h96 v32 h-96 Z M160 32 h32 v32 h-32 Z M256 32 h32 v32 h-32 Z M160 64 h96 v32 h-96 Z M160 96 h32 v32 h-32 Z M256 96 h32 v32 h-32 Z M160 128 h96 v32 h-96 Z" />
</svg>
